<?xml version="1.0" encoding="UTF-8"?>
<svg id="Capa_1" xmlns="http://www.w3.org/2000/svg" version="1.1" viewBox="0 0 2201.12 1125.25">
  <!-- Generator: Adobe Illustrator 30.1.0, SVG Export Plug-In . SVG Version: 2.1.1 Build 136)  -->
  <defs>
    <style>
      .st0 {
        fill: #04137c;
      }
    </style>
  </defs>
  <g>
    <rect class="st0" x="1116.31" y="508.28" width="142.65" height="234.31"/>
    <path class="st0" d="M1042.31,0c-193.65,0-350.63,156.98-350.63,350.63v41.33c0,193.65,156.98,350.63,350.63,350.63h7.11v-126.67c-130.51-.75-236.08-106.77-236.08-237.46v-14.33c0-131.15,106.32-237.47,237.47-237.47h417.96L1506.55,0h-464.23Z"/>
    <polygon class="st0" points="1116.31 303.97 1116.31 442.62 1374.55 442.62 1415.9 303.97 1116.31 303.97"/>
  </g>
  <g>
    <path class="st0" d="M105.32,913.46c49.92,0,75.6,27.99,75.6,27.99l-17.89,27.7s-23.37-21.64-55.98-21.64c-43.28,0-68.67,32.32-68.67,70.4s26.26,73.29,68.96,73.29c35.49,0,59.44-25.97,59.44-25.97l19.62,26.84s-28.28,33.18-80.51,33.18c-62.61,0-105.9-46.45-105.9-106.76s45.02-105.03,105.32-105.03Z"/>
    <path class="st0" d="M322.86,913.46c60.3,0,105.9,45.88,105.9,104.45s-45.59,107.34-105.9,107.34-105.9-47.03-105.9-107.34,45.59-104.45,105.9-104.45ZM322.86,1091.2c37.51,0,67.52-31.16,67.52-73.29s-30.01-70.4-67.52-70.4-67.52,30-67.52,70.4,30.01,73.29,67.52,73.29Z"/>
    <path class="st0" d="M478.08,916.92h37.22l77.62,118.31c7.79,11.83,17.02,31.74,17.02,31.74h.58s-2.02-19.62-2.02-31.74v-118.31h36.93v204.87h-36.93l-77.62-118.01c-7.79-11.83-17.02-31.74-17.02-31.74h-.58s2.02,19.62,2.02,31.74v118.01h-37.22v-204.87Z"/>
    <path class="st0" d="M713.51,1069.28s22.22,21.64,51.07,21.64c15.58,0,29.72-8.08,29.72-24.81,0-36.65-96.66-30.3-96.66-93.2,0-34.05,29.43-59.44,68.67-59.44s61.17,21.93,61.17,21.93l-16.16,30.3s-19.62-17.89-45.3-17.89c-17.31,0-30.87,10.1-30.87,24.53,0,36.36,96.37,27.41,96.37,92.91,0,32.61-24.81,60.02-67.52,60.02-45.59,0-70.69-27.99-70.69-27.99l20.2-27.99Z"/>
    <path class="st0" d="M877.39,916.92h37.22v131.29c0,27.41,17.89,42.99,45.3,42.99s45.59-15.58,45.59-43.28v-131h37.23v131.29c0,45.88-33.18,77.04-82.52,77.04s-82.81-31.16-82.81-77.04v-131.29Z"/>
    <path class="st0" d="M1103.29,916.92h37.22v172.84h88.58v32.03h-125.8v-204.87Z"/>
    <path class="st0" d="M1296.31,948.95h-67.23v-32.03h171.69v32.03h-67.23v172.84h-37.22v-172.84Z"/>
    <path class="st0" d="M1439.42,916.92h37.22v204.87h-37.22v-204.87Z"/>
    <path class="st0" d="M1540.11,916.92h37.22l77.62,118.31c7.79,11.83,17.02,31.74,17.02,31.74h.58s-2.02-19.62-2.02-31.74v-118.31h36.93v204.87h-36.93l-77.62-118.01c-7.79-11.83-17.02-31.74-17.02-31.74h-.57s2.02,19.62,2.02,31.74v118.01h-37.22v-204.87Z"/>
    <path class="st0" d="M1862.68,913.46c50.21,0,76.18,25.97,76.18,25.97l-18.47,27.7s-21.93-19.62-54.54-19.62c-45.88,0-70.4,31.74-70.4,70.4,0,44.44,30.3,73.29,68.67,73.29,30.87,0,51.36-21.35,51.36-21.35v-23.95h-31.45v-32.03h64.92v107.92h-31.74v-9.81c0-4.33.29-8.66.29-8.66h-.57s-21.35,21.93-59.44,21.93c-53.96,0-100.41-41.84-100.41-106.19,0-59.44,44.72-105.61,105.61-105.61Z"/>
    <path class="st0" d="M2083.39,916.92h117.73v32.03h-80.51v58h67.81v32.03h-67.81v82.81h-37.22v-204.87Z"/>
  </g>
</svg>